<mxfile host="app.diagrams.net" agent="Mozilla/5.0 (Windows NT 10.0; Win64; x64; rv:135.0) Gecko/20100101 Firefox/135.0" version="26.0.13">
  <diagram name="Page-1" id="c7488fd3-1785-93aa-aadb-54a6760d102a">
    <mxGraphModel dx="1229" dy="505" grid="1" gridSize="10" guides="1" tooltips="1" connect="1" arrows="1" fold="1" page="1" pageScale="1" pageWidth="1100" pageHeight="850" background="none" math="0" shadow="0">
      <root>
        <mxCell id="0" />
        <mxCell id="1" parent="0" />
        <mxCell id="2b4e8129b02d487f-1" value="HelloPrint Quote Process - To-Be" style="swimlane;html=1;childLayout=stackLayout;horizontal=1;startSize=20;horizontalStack=0;rounded=0;shadow=0;labelBackgroundColor=none;strokeWidth=1;fontFamily=Verdana;fontSize=8;align=center;" parent="1" vertex="1">
          <mxGeometry x="180" y="70" width="920" height="360" as="geometry" />
        </mxCell>
        <mxCell id="2b4e8129b02d487f-2" value="&lt;div&gt;Web inquiry&lt;/div&gt;&lt;div&gt;&amp;nbsp;form&lt;/div&gt;" style="swimlane;html=1;startSize=40;horizontal=0;" parent="2b4e8129b02d487f-1" vertex="1">
          <mxGeometry y="20" width="920" height="80" as="geometry" />
        </mxCell>
        <mxCell id="2b4e8129b02d487f-5" value="New Inquiry" style="ellipse;whiteSpace=wrap;html=1;rounded=0;shadow=0;labelBackgroundColor=none;strokeWidth=1;fontFamily=Verdana;fontSize=8;align=center;fillColor=#dae8fc;strokeColor=#6c8ebf;" parent="2b4e8129b02d487f-2" vertex="1">
          <mxGeometry x="60" y="20" width="60" height="40" as="geometry" />
        </mxCell>
        <mxCell id="2b4e8129b02d487f-3" value="&lt;div&gt;CRM/ERP&lt;/div&gt;&lt;div&gt;&amp;nbsp;backend&lt;/div&gt;" style="swimlane;html=1;startSize=40;horizontal=0;" parent="2b4e8129b02d487f-1" vertex="1">
          <mxGeometry y="100" width="920" height="110" as="geometry" />
        </mxCell>
        <mxCell id="1xPbIY4s8lT26GKrd_uz-5" style="edgeStyle=orthogonalEdgeStyle;rounded=0;orthogonalLoop=1;jettySize=auto;html=1;" parent="2b4e8129b02d487f-3" source="1xPbIY4s8lT26GKrd_uz-1" target="1xPbIY4s8lT26GKrd_uz-3" edge="1">
          <mxGeometry relative="1" as="geometry" />
        </mxCell>
        <mxCell id="1xPbIY4s8lT26GKrd_uz-1" value="Inquiry storage" style="rounded=1;whiteSpace=wrap;html=1;shadow=0;labelBackgroundColor=none;strokeWidth=1;fontFamily=Verdana;fontSize=8;align=center;fillColor=#d0cee2;strokeColor=#56517e;" parent="2b4e8129b02d487f-3" vertex="1">
          <mxGeometry x="170" y="10" width="70" height="37" as="geometry" />
        </mxCell>
        <mxCell id="1xPbIY4s8lT26GKrd_uz-3" value="Suppliers&#39; retrieval" style="rounded=1;whiteSpace=wrap;html=1;shadow=0;labelBackgroundColor=none;strokeWidth=1;fontFamily=Verdana;fontSize=8;align=center;fillColor=#d0cee2;strokeColor=#56517e;" parent="2b4e8129b02d487f-3" vertex="1">
          <mxGeometry x="170" y="60" width="70" height="37" as="geometry" />
        </mxCell>
        <mxCell id="UMN8CmXKmuf_3cd8Juoa-9" value="Mailing to suppliers" style="rounded=1;whiteSpace=wrap;html=1;shadow=0;labelBackgroundColor=none;strokeWidth=1;fontFamily=Verdana;fontSize=8;align=center;fillColor=#d0cee2;strokeColor=#56517e;" parent="2b4e8129b02d487f-3" vertex="1">
          <mxGeometry x="280" y="35.5" width="70" height="37" as="geometry" />
        </mxCell>
        <mxCell id="UMN8CmXKmuf_3cd8Juoa-25" value="Quote sending to customer" style="rounded=1;whiteSpace=wrap;html=1;shadow=0;labelBackgroundColor=none;strokeWidth=1;fontFamily=Verdana;fontSize=8;align=center;fillColor=#d0cee2;strokeColor=#56517e;" parent="2b4e8129b02d487f-3" vertex="1">
          <mxGeometry x="485" y="35.5" width="70" height="48" as="geometry" />
        </mxCell>
        <mxCell id="GSYKEvRZulPFKxu61sNm-9" style="edgeStyle=orthogonalEdgeStyle;rounded=0;orthogonalLoop=1;jettySize=auto;html=1;entryX=0;entryY=0.5;entryDx=0;entryDy=0;" edge="1" parent="2b4e8129b02d487f-3" source="UMN8CmXKmuf_3cd8Juoa-27" target="GSYKEvRZulPFKxu61sNm-8">
          <mxGeometry relative="1" as="geometry" />
        </mxCell>
        <mxCell id="UMN8CmXKmuf_3cd8Juoa-27" value="Response retrieval and processing" style="rounded=1;whiteSpace=wrap;html=1;shadow=0;labelBackgroundColor=none;strokeWidth=1;fontFamily=Verdana;fontSize=8;align=center;fillColor=#d0cee2;strokeColor=#56517e;" parent="2b4e8129b02d487f-3" vertex="1">
          <mxGeometry x="580" y="35.5" width="70" height="48" as="geometry" />
        </mxCell>
        <mxCell id="UMN8CmXKmuf_3cd8Juoa-28" style="edgeStyle=orthogonalEdgeStyle;rounded=0;orthogonalLoop=1;jettySize=auto;html=1;exitX=1;exitY=0.5;exitDx=0;exitDy=0;" parent="2b4e8129b02d487f-3" source="UMN8CmXKmuf_3cd8Juoa-25" target="UMN8CmXKmuf_3cd8Juoa-27" edge="1">
          <mxGeometry relative="1" as="geometry" />
        </mxCell>
        <mxCell id="GSYKEvRZulPFKxu61sNm-8" value="&lt;font face=&quot;Verdana&quot; style=&quot;font-size: 8px;&quot;&gt;Customer accepts?&lt;/font&gt;" style="rhombus;whiteSpace=wrap;html=1;fillColor=#fad7ac;strokeColor=#b46504;" vertex="1" parent="2b4e8129b02d487f-3">
          <mxGeometry x="690" y="24.25" width="70" height="70.5" as="geometry" />
        </mxCell>
        <mxCell id="GSYKEvRZulPFKxu61sNm-12" value="Accepted" style="strokeWidth=2;html=1;shape=mxgraph.flowchart.terminator;whiteSpace=wrap;fillColor=#d5e8d4;strokeColor=#82b366;" vertex="1" parent="2b4e8129b02d487f-3">
          <mxGeometry x="820" y="10" width="80" height="40" as="geometry" />
        </mxCell>
        <mxCell id="GSYKEvRZulPFKxu61sNm-13" value="Rejected" style="strokeWidth=2;html=1;shape=mxgraph.flowchart.terminator;whiteSpace=wrap;fillColor=#f8cecc;strokeColor=#b85450;" vertex="1" parent="2b4e8129b02d487f-3">
          <mxGeometry x="820" y="60" width="80" height="40" as="geometry" />
        </mxCell>
        <mxCell id="GSYKEvRZulPFKxu61sNm-14" style="edgeStyle=orthogonalEdgeStyle;rounded=0;orthogonalLoop=1;jettySize=auto;html=1;entryX=0;entryY=0.5;entryDx=0;entryDy=0;entryPerimeter=0;exitX=0.5;exitY=0;exitDx=0;exitDy=0;" edge="1" parent="2b4e8129b02d487f-3" source="GSYKEvRZulPFKxu61sNm-8" target="GSYKEvRZulPFKxu61sNm-12">
          <mxGeometry relative="1" as="geometry">
            <Array as="points">
              <mxPoint x="725" y="20" />
              <mxPoint x="790" y="20" />
              <mxPoint x="790" y="30" />
            </Array>
          </mxGeometry>
        </mxCell>
        <mxCell id="GSYKEvRZulPFKxu61sNm-16" value="Yes" style="edgeLabel;html=1;align=center;verticalAlign=middle;resizable=0;points=[];" vertex="1" connectable="0" parent="GSYKEvRZulPFKxu61sNm-14">
          <mxGeometry x="-0.4321" y="2" relative="1" as="geometry">
            <mxPoint x="8" as="offset" />
          </mxGeometry>
        </mxCell>
        <mxCell id="GSYKEvRZulPFKxu61sNm-15" style="edgeStyle=orthogonalEdgeStyle;rounded=0;orthogonalLoop=1;jettySize=auto;html=1;entryX=0;entryY=0.5;entryDx=0;entryDy=0;entryPerimeter=0;exitX=0.5;exitY=1;exitDx=0;exitDy=0;" edge="1" parent="2b4e8129b02d487f-3" source="GSYKEvRZulPFKxu61sNm-8" target="GSYKEvRZulPFKxu61sNm-13">
          <mxGeometry relative="1" as="geometry">
            <Array as="points">
              <mxPoint x="725" y="100" />
              <mxPoint x="790" y="100" />
              <mxPoint x="790" y="80" />
            </Array>
          </mxGeometry>
        </mxCell>
        <mxCell id="GSYKEvRZulPFKxu61sNm-17" value="No" style="edgeLabel;html=1;align=center;verticalAlign=middle;resizable=0;points=[];" vertex="1" connectable="0" parent="GSYKEvRZulPFKxu61sNm-15">
          <mxGeometry x="-0.5431" y="-1" relative="1" as="geometry">
            <mxPoint x="13" y="-1" as="offset" />
          </mxGeometry>
        </mxCell>
        <mxCell id="2b4e8129b02d487f-18" style="edgeStyle=orthogonalEdgeStyle;rounded=0;html=1;labelBackgroundColor=none;startArrow=none;startFill=0;startSize=5;endArrow=classicThin;endFill=1;endSize=5;jettySize=auto;orthogonalLoop=1;strokeWidth=1;fontFamily=Verdana;fontSize=8;exitX=0.5;exitY=1;exitDx=0;exitDy=0;entryX=0.5;entryY=0;entryDx=0;entryDy=0;" parent="2b4e8129b02d487f-1" source="2b4e8129b02d487f-5" target="UMN8CmXKmuf_3cd8Juoa-2" edge="1">
          <mxGeometry relative="1" as="geometry">
            <mxPoint x="184.9655172413793" y="222" as="targetPoint" />
          </mxGeometry>
        </mxCell>
        <mxCell id="UMN8CmXKmuf_3cd8Juoa-23" style="edgeStyle=orthogonalEdgeStyle;rounded=0;orthogonalLoop=1;jettySize=auto;html=1;exitX=1;exitY=0.5;exitDx=0;exitDy=0;" parent="2b4e8129b02d487f-1" source="UMN8CmXKmuf_3cd8Juoa-9" target="UMN8CmXKmuf_3cd8Juoa-22" edge="1">
          <mxGeometry relative="1" as="geometry" />
        </mxCell>
        <mxCell id="UMN8CmXKmuf_3cd8Juoa-8" style="edgeStyle=orthogonalEdgeStyle;rounded=0;orthogonalLoop=1;jettySize=auto;html=1;entryX=0.5;entryY=1;entryDx=0;entryDy=0;exitX=0.5;exitY=0;exitDx=0;exitDy=0;" parent="2b4e8129b02d487f-1" source="GSYKEvRZulPFKxu61sNm-5" target="UMN8CmXKmuf_3cd8Juoa-9" edge="1">
          <mxGeometry relative="1" as="geometry">
            <mxPoint x="340" y="280" as="targetPoint" />
          </mxGeometry>
        </mxCell>
        <mxCell id="1xPbIY4s8lT26GKrd_uz-4" style="edgeStyle=orthogonalEdgeStyle;rounded=0;orthogonalLoop=1;jettySize=auto;html=1;entryX=0;entryY=0.5;entryDx=0;entryDy=0;" parent="2b4e8129b02d487f-1" source="UMN8CmXKmuf_3cd8Juoa-2" target="1xPbIY4s8lT26GKrd_uz-1" edge="1">
          <mxGeometry relative="1" as="geometry" />
        </mxCell>
        <mxCell id="1xPbIY4s8lT26GKrd_uz-6" style="edgeStyle=orthogonalEdgeStyle;rounded=0;orthogonalLoop=1;jettySize=auto;html=1;entryX=0.5;entryY=0;entryDx=0;entryDy=0;exitX=0.5;exitY=1;exitDx=0;exitDy=0;" parent="2b4e8129b02d487f-1" source="1xPbIY4s8lT26GKrd_uz-3" target="UMN8CmXKmuf_3cd8Juoa-5" edge="1">
          <mxGeometry relative="1" as="geometry" />
        </mxCell>
        <mxCell id="2b4e8129b02d487f-4" value="New Solution" style="swimlane;html=1;startSize=40;horizontal=0;" parent="2b4e8129b02d487f-1" vertex="1">
          <mxGeometry y="210" width="920" height="150" as="geometry" />
        </mxCell>
        <mxCell id="UMN8CmXKmuf_3cd8Juoa-2" value="Processing of the inquiry" style="rounded=1;whiteSpace=wrap;html=1;shadow=0;labelBackgroundColor=none;strokeWidth=1;fontFamily=Verdana;fontSize=8;align=center;fillColor=#b1ddf0;strokeColor=#10739e;" parent="2b4e8129b02d487f-4" vertex="1">
          <mxGeometry x="55" y="52" width="70" height="37" as="geometry" />
        </mxCell>
        <mxCell id="GSYKEvRZulPFKxu61sNm-6" style="edgeStyle=orthogonalEdgeStyle;rounded=0;orthogonalLoop=1;jettySize=auto;html=1;entryX=0;entryY=0.5;entryDx=0;entryDy=0;" edge="1" parent="2b4e8129b02d487f-4" source="UMN8CmXKmuf_3cd8Juoa-5" target="GSYKEvRZulPFKxu61sNm-5">
          <mxGeometry relative="1" as="geometry" />
        </mxCell>
        <mxCell id="UMN8CmXKmuf_3cd8Juoa-5" value="Suitable suppliers" style="rounded=1;whiteSpace=wrap;html=1;shadow=0;labelBackgroundColor=none;strokeWidth=1;fontFamily=Verdana;fontSize=8;align=center;fillColor=#bac8d3;strokeColor=#23445d;" parent="2b4e8129b02d487f-4" vertex="1">
          <mxGeometry x="170" y="52" width="70" height="37" as="geometry" />
        </mxCell>
        <mxCell id="UMN8CmXKmuf_3cd8Juoa-22" value="Response retrieval and processing" style="rounded=1;whiteSpace=wrap;html=1;shadow=0;labelBackgroundColor=none;strokeWidth=1;fontFamily=Verdana;fontSize=8;align=center;fillColor=#bac8d3;strokeColor=#23445d;" parent="2b4e8129b02d487f-4" vertex="1">
          <mxGeometry x="370" y="46.5" width="70" height="48" as="geometry" />
        </mxCell>
        <mxCell id="UMN8CmXKmuf_3cd8Juoa-24" style="edgeStyle=orthogonalEdgeStyle;rounded=0;orthogonalLoop=1;jettySize=auto;html=1;entryX=0;entryY=0.5;entryDx=0;entryDy=0;" parent="2b4e8129b02d487f-4" source="UMN8CmXKmuf_3cd8Juoa-22" target="GSYKEvRZulPFKxu61sNm-4" edge="1">
          <mxGeometry relative="1" as="geometry">
            <mxPoint x="490" y="30" as="targetPoint" />
          </mxGeometry>
        </mxCell>
        <mxCell id="UMN8CmXKmuf_3cd8Juoa-29" value="&lt;font style=&quot;font-size: 8px;&quot;&gt;Optimization model&lt;/font&gt;" style="text;html=1;align=center;verticalAlign=middle;whiteSpace=wrap;rounded=0;" parent="2b4e8129b02d487f-4" vertex="1">
          <mxGeometry x="480" y="52" width="80" height="20" as="geometry" />
        </mxCell>
        <mxCell id="GSYKEvRZulPFKxu61sNm-3" style="edgeStyle=orthogonalEdgeStyle;rounded=0;orthogonalLoop=1;jettySize=auto;html=1;entryX=1;entryY=0.5;entryDx=0;entryDy=0;exitX=1;exitY=0.5;exitDx=0;exitDy=0;" edge="1" parent="2b4e8129b02d487f-4" source="GSYKEvRZulPFKxu61sNm-4" target="GSYKEvRZulPFKxu61sNm-2">
          <mxGeometry relative="1" as="geometry">
            <mxPoint x="857" y="76" as="sourcePoint" />
          </mxGeometry>
        </mxCell>
        <mxCell id="GSYKEvRZulPFKxu61sNm-2" value="Margin Enhancer" style="rounded=1;whiteSpace=wrap;html=1;shadow=0;labelBackgroundColor=none;strokeWidth=1;fontFamily=Verdana;fontSize=8;align=center;fillColor=#b1ddf0;strokeColor=#10739e;" vertex="1" parent="2b4e8129b02d487f-4">
          <mxGeometry x="485" y="10" width="70" height="48" as="geometry" />
        </mxCell>
        <mxCell id="GSYKEvRZulPFKxu61sNm-4" value="Response scoring and ML acceptance prediction" style="rounded=1;whiteSpace=wrap;html=1;shadow=0;labelBackgroundColor=none;strokeWidth=1;fontFamily=Verdana;fontSize=8;align=center;fillColor=#b1ddf0;strokeColor=#10739e;" vertex="1" parent="2b4e8129b02d487f-4">
          <mxGeometry x="480" y="85.5" width="70" height="48" as="geometry" />
        </mxCell>
        <mxCell id="GSYKEvRZulPFKxu61sNm-5" value="RFQ Setup and information" style="rounded=1;whiteSpace=wrap;html=1;shadow=0;labelBackgroundColor=none;strokeWidth=1;fontFamily=Verdana;fontSize=8;align=center;fillColor=#bac8d3;strokeColor=#23445d;" vertex="1" parent="2b4e8129b02d487f-4">
          <mxGeometry x="280" y="46.5" width="70" height="48" as="geometry" />
        </mxCell>
        <mxCell id="GSYKEvRZulPFKxu61sNm-18" value="&lt;font style=&quot;font-size: 8px;&quot;&gt;Gen AI Classifier&lt;/font&gt;" style="text;html=1;align=center;verticalAlign=middle;whiteSpace=wrap;rounded=0;" vertex="1" parent="2b4e8129b02d487f-4">
          <mxGeometry x="50" y="89" width="80" height="20" as="geometry" />
        </mxCell>
        <mxCell id="GSYKEvRZulPFKxu61sNm-19" value="&lt;font style=&quot;font-size: 8px;&quot;&gt;Regression model&lt;/font&gt;" style="text;html=1;align=center;verticalAlign=middle;whiteSpace=wrap;rounded=0;" vertex="1" parent="2b4e8129b02d487f-4">
          <mxGeometry x="475" y="130" width="80" height="20" as="geometry" />
        </mxCell>
        <mxCell id="GSYKEvRZulPFKxu61sNm-22" value="Legend" style="text;html=1;align=center;verticalAlign=middle;whiteSpace=wrap;rounded=0;" vertex="1" parent="2b4e8129b02d487f-4">
          <mxGeometry x="765" y="72" width="60" height="30" as="geometry" />
        </mxCell>
        <mxCell id="GSYKEvRZulPFKxu61sNm-23" value="AI elements of the system" style="rounded=1;whiteSpace=wrap;html=1;shadow=0;labelBackgroundColor=none;strokeWidth=1;fontFamily=Verdana;fontSize=8;align=center;fillColor=#b1ddf0;strokeColor=#10739e;" vertex="1" parent="2b4e8129b02d487f-4">
          <mxGeometry x="680" y="112" width="70" height="24.5" as="geometry" />
        </mxCell>
        <mxCell id="GSYKEvRZulPFKxu61sNm-25" value="Other elements of the system" style="rounded=1;whiteSpace=wrap;html=1;shadow=0;labelBackgroundColor=none;strokeWidth=1;fontFamily=Verdana;fontSize=8;align=center;fillColor=#bac8d3;strokeColor=#23445d;" vertex="1" parent="2b4e8129b02d487f-4">
          <mxGeometry x="760" y="112.25" width="70" height="24" as="geometry" />
        </mxCell>
        <mxCell id="GSYKEvRZulPFKxu61sNm-43" value="Tasks done by existing tech stack" style="rounded=1;whiteSpace=wrap;html=1;shadow=0;labelBackgroundColor=none;strokeWidth=1;fontFamily=Verdana;fontSize=8;align=center;fillColor=#d0cee2;strokeColor=#56517e;" vertex="1" parent="2b4e8129b02d487f-4">
          <mxGeometry x="840" y="106.75" width="70" height="35" as="geometry" />
        </mxCell>
        <mxCell id="GSYKEvRZulPFKxu61sNm-7" style="edgeStyle=orthogonalEdgeStyle;rounded=0;orthogonalLoop=1;jettySize=auto;html=1;exitX=0.5;exitY=0;exitDx=0;exitDy=0;entryX=0.5;entryY=1;entryDx=0;entryDy=0;" edge="1" parent="2b4e8129b02d487f-1" source="GSYKEvRZulPFKxu61sNm-2" target="UMN8CmXKmuf_3cd8Juoa-25">
          <mxGeometry relative="1" as="geometry">
            <mxPoint x="550" y="190" as="targetPoint" />
          </mxGeometry>
        </mxCell>
        <mxCell id="GSYKEvRZulPFKxu61sNm-21" value="" style="endArrow=none;dashed=1;html=1;dashPattern=1 3;strokeWidth=2;rounded=0;" edge="1" parent="1">
          <mxGeometry width="50" height="50" relative="1" as="geometry">
            <mxPoint x="840" y="430" as="sourcePoint" />
            <mxPoint x="840" y="350" as="targetPoint" />
          </mxGeometry>
        </mxCell>
        <mxCell id="GSYKEvRZulPFKxu61sNm-44" value="" style="endArrow=none;dashed=1;html=1;dashPattern=1 3;strokeWidth=2;rounded=0;exitX=1;exitY=0.5;exitDx=0;exitDy=0;" edge="1" parent="1" source="2b4e8129b02d487f-4">
          <mxGeometry width="50" height="50" relative="1" as="geometry">
            <mxPoint x="850" y="440" as="sourcePoint" />
            <mxPoint x="840" y="355" as="targetPoint" />
          </mxGeometry>
        </mxCell>
      </root>
    </mxGraphModel>
  </diagram>
</mxfile>
